<?xml version="1.0" encoding="utf-8"?>
<!-- Generator: Adobe Illustrator 24.3.0, SVG Export Plug-In . SVG Version: 6.00 Build 0)  -->
<svg version="1.1" id="Layer_1" xmlns="http://www.w3.org/2000/svg" xmlns:xlink="http://www.w3.org/1999/xlink" x="0px" y="0px"
	 viewBox="0 0 1024 512" style="enable-background:new 0 0 1024 512;" xml:space="preserve">
<style type="text/css">
	.st0{opacity:0.8;}
	.st1{fill:#FFFFFF;}
	.st2{fill:#008000;}
	.st3{fill:#7FFF00;}
	.st4{fill:none;stroke:#FFFFFF;stroke-miterlimit:10;}
	.st5{enable-background:new    ;}
	.st6{fill:#ED1C24;}
	.st7{clip-path:url(#SVGID_2_);}
	.st8{stroke:#B3B3B3;stroke-miterlimit:10;}
	.st9{fill:url(#SVGID_9_);stroke:#B3B3B3;stroke-miterlimit:10;}
	.st10{fill:url(#SVGID_10_);stroke:#B3B3B3;stroke-miterlimit:10;}
	.st11{fill:#FF0000;}
</style>
<g>
	<g>
		<circle class="st6" cx="199.86" cy="256" r="173.71"/>
		<g>
			<defs>
				<circle id="SVGID_1_" cx="199.86" cy="256" r="173.71"/>
			</defs>
			<clipPath id="SVGID_2_">
				<use xlink:href="#SVGID_1_"  style="overflow:visible;"/>
			</clipPath>
			<g class="st7">
				<ellipse class="st3" cx="187.61" cy="170.63" rx="29.04" ry="12.39"/>
				<ellipse class="st3" cx="95.88" cy="268.44" rx="65.84" ry="35.05"/>
				<ellipse class="st3" cx="275.77" cy="354.41" rx="59.38" ry="30.35"/>
				<ellipse class="st3" cx="206.22" cy="324.43" rx="68.15" ry="34.84"/>
				<ellipse class="st3" cx="182.69" cy="206.36" rx="30.13" ry="13.3"/>
				<ellipse class="st3" cx="227.06" cy="209.95" rx="33.73" ry="14.89"/>
				<path d="M162.86,361.89c-33.58-27.18-45.57-36.77-51.56-43.57c-4.61-5.22-13.46-21.53-4.81-38.6
					c-25.77-13.16-51.75-1.97-60.95,0.83c6.11-3.66,16.09-8.82,30.5-9.82c-0.73-1.97-1.12-3.97-9.12-10.36
					c6.8,3.2,13.59,7.59,15.57,10.2c7.75,0.15,16.6,1.5,26.62,4.75c2.3-3.33,5.34-6.66,9.27-9.91c0.42-0.35,0.86-0.7,1.3-1.05
					c-2.6-6.2-16.59-11.39-30.98-14.59c10.39-0.8,25.58,1.2,37.84,9.45c23.78-17.06,43.34-21.15,58.69-41.63
					c1.59-2.11,2.92-4.11,4.04-6.01c-3.44-0.59-7.03-2.19-10.23-6.58c3.2,1.2,7.99,4.8,11.99,3.31c3.8-6.51,3.4-12.11,1.42-19.27
					c-1.22-3.24-3.42-9.63-11.61-23.62c3.43,3.52,6.69,6.86,9.78,10.24c2.22,0.55,4.61-0.65,6.61-2.64c-0.4,2-2.4,3.6-4.28,5.25
					c2.35,2.68,4.58,5.43,6.68,8.34c5.26,10.21,5.36,15.96,3.25,24.82c5.34,2.76,13.33,0.76,24.93-2.03
					c-11.19,6-17.99,7.19-26.69,7.24c-1.58,3.5-4.29,5.15-6.88,9.15c-9.12,14.03-44.77,37.57-55.16,47.57s-22.38,27.98,7.99,45.97
					c10.42,6.17,24.43,13.15,37.1,21.52c3.2-2.86,24.46-17.12,47.24-19.52c-11.57,4.89-20.41,9.42-25.97,14.89
					c3.59,4.29,8.39,6.69,21.58,9.49c-17.99,0.4-19.59-2-24.87-5.58c-2.3,3.4-3.5,7.22-3.49,11.68c4.58,4.09,8.56,8.47,11.55,13.2
					c27.62-10.13,38.88-10.48,57.5-7.28c22.46-9.62,34.45-15.62,45.24-17.61c-12.79,5.6-24.38,11.19-36.57,19.42
					c16.79,4.1,29.06,10.65,36.57,13.76C248,357.69,244,357.69,214.1,372.87c12.71,29.2,4.8,56.28,1.12,57.18
					c-15.94,3.87-55.56,0.8-60.76-6C165.66,411.66,196.43,389.07,162.86,361.89z"/>
			</g>
		</g>
	</g>
	<g>
		<g>
			<path d="M441.91,248.66V232.3h-8.18v-24.53h98.11v81.76c0,16.35-8.18,24.53-24.53,24.53h-24.53v-24.53h24.53v-16.35h-40.88v40.88
				h-24.53v-40.88h-8.18v-24.53H441.91z M466.43,232.3v16.35h40.88V232.3H466.43z"/>
			<path d="M597.24,207.7h32.7v106.36h-24.53v-0.08l-40.88,0.08h-24.53V207.78h32.7v-8.18h24.53V207.7z M564.54,232.3v57.23
				l40.88-0.08V232.3H564.54z"/>
			<path d="M736.23,207.78v81.76h8.18v24.53h-8.18c-16.35,0-24.53-8.18-24.53-24.53v-57.15c-32.65,1.31-49,14.88-49.05,40.71v40.96
				h-24.53V207.78h24.53v13.16c11.99-8.77,28.34-13.16,49.05-13.16H736.23z"/>
			<path d="M801.63,314.06h-49.05v-24.53h49.05c10.9,0,16.35-5.45,16.35-16.35h-65.4v-24.53c0-27.25,13.62-40.88,40.88-40.88h49.05
				v24.53h-49.05c-10.9,0-16.35,5.45-16.35,16.35h65.4v24.53C842.51,300.44,828.88,314.06,801.63,314.06z"/>
			<path d="M891.56,207.78v-8.18h24.53v8.18h40.88v24.53h-8.18v57.23h8.18v24.53h-8.18c-16.35,0-24.53-8.18-24.53-24.53v-16.35
				h-40.88v16.35c0,16.35-8.18,24.53-24.53,24.53h-8.18v-24.53h8.18V232.3h-8.18v-24.53H891.56z M924.26,232.3h-40.88v16.35h40.88
				V232.3z"/>
			<path d="M965.14,207.78h24.53v81.76h8.18v24.53h-8.18c-16.35,0-24.53-8.18-24.53-24.53V207.78z"/>
		</g>
		<g class="st5">
			<path d="M480.11,126.4c-0.29-1.82-0.88-3.55-1.77-5.2c-0.88-1.64-2.06-3.08-3.54-4.31c-1.47-1.23-3.27-2.2-5.38-2.91
				c-2.11-0.71-4.54-1.07-7.29-1.07c-3.09,0-5.89,0.44-8.4,1.33c-2.51,0.88-4.64,2.22-6.41,4.01c-1.77,1.8-3.13,4.04-4.09,6.74
				c-0.96,2.7-1.44,5.84-1.44,9.43c0,2.5,0.36,4.96,1.07,7.37c0.71,2.41,1.85,4.56,3.42,6.45c1.57,1.89,3.62,3.43,6.15,4.6
				c2.53,1.18,5.61,1.77,9.24,1.77c2.31,0,4.46-0.28,6.45-0.85c1.99-0.57,3.77-1.44,5.34-2.62c1.57-1.18,2.92-2.69,4.05-4.53
				c1.13-1.84,1.99-4.06,2.58-6.67h7.81c-0.29,2.9-1.13,5.65-2.51,8.25c-1.38,2.6-3.2,4.89-5.49,6.85
				c-2.29,1.97-4.97,3.51-8.07,4.64c-3.09,1.13-6.51,1.7-10.24,1.7c-3.34,0-6.65-0.49-9.94-1.47c-3.29-0.98-6.24-2.57-8.84-4.75
				c-2.61-2.18-4.73-5.05-6.37-8.58c-1.64-3.54-2.47-7.86-2.47-12.97c0-3.83,0.59-7.41,1.77-10.76c1.18-3.34,2.93-6.25,5.27-8.73
				c2.33-2.48,5.2-4.43,8.62-5.86c3.41-1.43,7.38-2.14,11.9-2.14c2.65,0,5.45,0.32,8.4,0.95c2.95,0.64,5.7,1.73,8.25,3.28
				s4.73,3.62,6.52,6.22c1.79,2.61,2.86,5.87,3.2,9.8H480.11z"/>
			<path d="M497.5,133.55c0.49-4.81,2.36-8.25,5.6-10.31c3.24-2.06,7.76-3.09,13.56-3.09c1.97,0,3.99,0.15,6.08,0.44
				c2.09,0.29,4,0.85,5.75,1.66s3.17,1.93,4.27,3.35c1.1,1.43,1.65,3.27,1.65,5.52v20.78c0,2.21,1.11,3.32,3.32,3.32
				c0.39,0,0.82-0.02,1.29-0.07c0.47-0.05,0.9-0.12,1.29-0.22v5.16c-0.89,0.15-1.84,0.26-2.87,0.33c-1.03,0.08-1.99,0.11-2.87,0.11
				c-1.87,0-3.38-0.36-4.53-1.07c-1.15-0.71-1.85-2.15-2.1-4.31c-0.74,0.98-1.72,1.87-2.95,2.65c-1.23,0.78-2.58,1.45-4.05,1.99
				c-1.47,0.54-3.02,0.95-4.64,1.22c-1.62,0.27-3.22,0.41-4.79,0.41c-3.19,0-5.81-0.37-7.85-1.11c-2.04-0.74-3.64-1.68-4.79-2.84
				c-1.15-1.15-1.95-2.4-2.39-3.76c-0.44-1.35-0.66-2.66-0.66-3.94c0-1.77,0.28-3.33,0.85-4.68c0.56-1.35,1.5-2.5,2.8-3.46
				s3.01-1.76,5.12-2.39c2.11-0.64,4.71-1.13,7.81-1.47l8.4-0.88c2.06-0.2,3.7-0.59,4.9-1.18s1.81-1.74,1.81-3.46
				c0-1.32-0.29-2.4-0.89-3.24c-0.59-0.83-1.4-1.47-2.43-1.92c-1.03-0.44-2.22-0.75-3.57-0.92c-1.35-0.17-2.76-0.26-4.23-0.26
				c-1.57,0-3.07,0.12-4.49,0.37c-1.43,0.25-2.68,0.66-3.76,1.25c-1.08,0.59-1.95,1.37-2.62,2.36c-0.66,0.98-1.02,2.21-1.07,3.68
				H497.5z M527.48,139.88c-0.54,0.64-1.36,1.12-2.47,1.44c-1.11,0.32-2.69,0.6-4.75,0.85l-8.33,1.03
				c-2.95,0.39-5.14,1.03-6.59,1.92c-1.45,0.88-2.17,2.36-2.17,4.42c0,1.82,0.82,3.29,2.47,4.42c1.64,1.13,3.82,1.69,6.52,1.69
				c2.06,0,4.03-0.26,5.89-0.77c1.87-0.52,3.5-1.25,4.9-2.21s2.5-2.1,3.32-3.43c0.81-1.32,1.22-2.8,1.22-4.42V139.88z"/>
			<path d="M547.15,121.47h7.37v7.07h0.15c1.72-3.04,3.74-5.21,6.08-6.48c2.33-1.28,4.73-1.92,7.18-1.92c0.93,0,1.69,0.03,2.28,0.07
				c0.59,0.05,1.23,0.17,1.92,0.37v7.96c-0.94-0.25-1.79-0.43-2.58-0.55c-0.78-0.12-1.67-0.18-2.65-0.18c-3.68,0-6.66,1.07-8.95,3.2
				c-2.28,2.14-3.42,5.29-3.42,9.47v19.6h-7.37V121.47z"/>
			<path d="M613.09,155.14h-0.15c-0.74,1.03-1.64,1.93-2.72,2.69c-1.08,0.76-2.27,1.41-3.57,1.95c-1.3,0.54-2.67,0.95-4.09,1.22
				c-1.43,0.27-2.85,0.41-4.27,0.41c-2.9,0-5.62-0.46-8.18-1.36c-2.55-0.91-4.78-2.23-6.67-3.98c-1.89-1.74-3.39-3.88-4.49-6.41
				c-1.11-2.53-1.66-5.42-1.66-8.66c0-3.24,0.55-6.13,1.66-8.66c1.11-2.53,2.6-4.66,4.49-6.41c1.89-1.74,4.11-3.07,6.67-3.98
				c2.55-0.91,5.28-1.36,8.18-1.36c1.43,0,2.85,0.14,4.27,0.41c1.42,0.27,2.79,0.66,4.09,1.18c1.3,0.52,2.49,1.17,3.57,1.95
				c1.08,0.79,1.99,1.69,2.72,2.73h0.15v-19.82h7.37v53.04h-7.37V155.14z M585.1,140.99c0,1.87,0.27,3.65,0.81,5.34
				c0.54,1.69,1.39,3.2,2.54,4.53c1.15,1.33,2.62,2.38,4.38,3.17c1.77,0.78,3.9,1.18,6.41,1.18c2.5,0,4.65-0.39,6.45-1.18
				c1.79-0.78,3.28-1.84,4.46-3.17c1.18-1.33,2.04-2.84,2.58-4.53c0.54-1.7,0.81-3.48,0.81-5.34c0-2.21-0.35-4.2-1.03-5.97
				c-0.69-1.77-1.66-3.25-2.91-4.45s-2.76-2.14-4.53-2.8c-1.77-0.66-3.71-0.99-5.82-0.99c-4.32,0-7.76,1.25-10.31,3.76
				C586.37,133.03,585.1,136.52,585.1,140.99z"/>
			<path d="M631.21,133.55c0.49-4.81,2.36-8.25,5.6-10.31c3.24-2.06,7.76-3.09,13.56-3.09c1.96,0,3.99,0.15,6.08,0.44
				s4,0.85,5.75,1.66s3.17,1.93,4.27,3.35c1.11,1.43,1.66,3.27,1.66,5.52v20.78c0,2.21,1.11,3.32,3.32,3.32
				c0.39,0,0.82-0.02,1.29-0.07c0.47-0.05,0.9-0.12,1.29-0.22v5.16c-0.88,0.15-1.84,0.26-2.87,0.33c-1.03,0.08-1.99,0.11-2.87,0.11
				c-1.87,0-3.38-0.36-4.53-1.07c-1.16-0.71-1.86-2.15-2.1-4.31c-0.74,0.98-1.72,1.87-2.95,2.65c-1.23,0.78-2.58,1.45-4.05,1.99
				c-1.47,0.54-3.02,0.95-4.64,1.22c-1.62,0.27-3.22,0.41-4.79,0.41c-3.2,0-5.81-0.37-7.85-1.11c-2.04-0.74-3.64-1.68-4.79-2.84
				c-1.15-1.15-1.95-2.4-2.39-3.76c-0.44-1.35-0.66-2.66-0.66-3.94c0-1.77,0.28-3.33,0.85-4.68c0.57-1.35,1.5-2.5,2.8-3.46
				c1.3-0.96,3.01-1.76,5.12-2.39s4.72-1.13,7.81-1.47l8.4-0.88c2.06-0.2,3.7-0.59,4.9-1.18s1.81-1.74,1.81-3.46
				c0-1.32-0.29-2.4-0.88-3.24c-0.59-0.83-1.4-1.47-2.43-1.92c-1.03-0.44-2.22-0.75-3.57-0.92c-1.35-0.17-2.76-0.26-4.23-0.26
				c-1.57,0-3.07,0.12-4.5,0.37c-1.42,0.25-2.68,0.66-3.76,1.25c-1.08,0.59-1.95,1.37-2.61,2.36c-0.66,0.98-1.02,2.21-1.07,3.68
				H631.21z M661.2,139.88c-0.54,0.64-1.36,1.12-2.47,1.44c-1.11,0.32-2.69,0.6-4.75,0.85l-8.33,1.03
				c-2.95,0.39-5.15,1.03-6.59,1.92c-1.45,0.88-2.17,2.36-2.17,4.42c0,1.82,0.82,3.29,2.47,4.42c1.64,1.13,3.82,1.69,6.52,1.69
				c2.06,0,4.03-0.26,5.89-0.77c1.86-0.52,3.5-1.25,4.9-2.21s2.51-2.1,3.32-3.43c0.81-1.32,1.21-2.8,1.21-4.42V139.88z"/>
			<path d="M680.87,121.47h7.37v5.82h0.15c1.81-2.7,4.09-4.57,6.82-5.6c2.72-1.03,5.49-1.55,8.29-1.55c2.31,0,4.46,0.26,6.45,0.77
				c1.99,0.52,3.71,1.33,5.16,2.43c1.45,1.11,2.58,2.52,3.39,4.23c0.81,1.72,1.21,3.78,1.21,6.19v26.3h-7.37v-24.83
				c0-2.85-0.91-5.05-2.72-6.59c-1.82-1.55-4.72-2.32-8.69-2.32c-1.67,0-3.27,0.25-4.79,0.74c-1.52,0.49-2.87,1.22-4.05,2.17
				c-1.18,0.96-2.11,2.15-2.8,3.57c-0.69,1.42-1.03,3.09-1.03,5.01v22.25h-7.37V121.47z"/>
			<path d="M728.83,140.77c0-2.8,0.47-5.44,1.4-7.92c0.93-2.48,2.32-4.67,4.16-6.56c1.84-1.89,4.16-3.39,6.96-4.49
				c2.8-1.11,6.09-1.66,9.87-1.66c3.73,0,7.01,0.55,9.83,1.66c2.83,1.11,5.16,2.6,7,4.49c1.84,1.89,3.23,4.08,4.16,6.56
				c0.93,2.48,1.4,5.12,1.4,7.92c0,2.8-0.47,5.44-1.4,7.92c-0.93,2.48-2.32,4.67-4.16,6.56c-1.84,1.89-4.17,3.39-7,4.5
				c-2.83,1.11-6.1,1.66-9.83,1.66c-3.78,0-7.07-0.55-9.87-1.66c-2.8-1.11-5.12-2.6-6.96-4.5c-1.84-1.89-3.23-4.07-4.16-6.56
				C729.3,146.21,728.83,143.57,728.83,140.77z M765.81,140.77c0-1.77-0.26-3.51-0.77-5.23c-0.52-1.72-1.35-3.25-2.51-4.6
				c-1.15-1.35-2.67-2.46-4.53-3.32c-1.87-0.86-4.12-1.29-6.78-1.29s-4.91,0.43-6.78,1.29c-1.87,0.86-3.38,1.97-4.53,3.32
				c-1.16,1.35-1.99,2.89-2.51,4.6c-0.52,1.72-0.78,3.46-0.78,5.23c0,1.77,0.26,3.51,0.78,5.23c0.51,1.72,1.35,3.25,2.51,4.6
				c1.15,1.35,2.66,2.46,4.53,3.32c1.87,0.86,4.13,1.29,6.78,1.29s4.91-0.43,6.78-1.29c1.87-0.86,3.38-1.97,4.53-3.32
				c1.15-1.35,1.99-2.88,2.51-4.6C765.55,144.28,765.81,142.54,765.81,140.77z"/>
			<path d="M798.23,114.25h-19.89v-6.78h47.59v6.78h-19.89v45.82h-7.81V114.25z"/>
			<path d="M826.88,121.47h7.37v7.07h0.15c1.72-3.04,3.74-5.21,6.08-6.48c2.33-1.28,4.73-1.92,7.18-1.92c0.93,0,1.69,0.03,2.28,0.07
				c0.59,0.05,1.23,0.17,1.92,0.37v7.96c-0.93-0.25-1.79-0.43-2.58-0.55c-0.79-0.12-1.67-0.18-2.65-0.18c-3.69,0-6.67,1.07-8.95,3.2
				c-2.29,2.14-3.43,5.29-3.43,9.47v19.6h-7.37V121.47z"/>
			<path d="M864.82,142.98c0.15,2.01,0.66,3.78,1.55,5.3c0.88,1.52,1.99,2.8,3.32,3.83c1.32,1.03,2.81,1.81,4.46,2.32
				c1.64,0.51,3.28,0.77,4.9,0.77c1.03,0,2.15-0.1,3.35-0.29c1.2-0.2,2.37-0.55,3.5-1.07c1.13-0.51,2.18-1.21,3.17-2.1
				c0.98-0.88,1.79-2.01,2.43-3.39h7.81c-0.93,2.31-2.14,4.29-3.61,5.93c-1.47,1.64-3.09,3-4.86,4.05c-1.77,1.06-3.63,1.83-5.6,2.32
				c-1.97,0.49-3.9,0.74-5.82,0.74c-3.78,0-7.07-0.55-9.87-1.66c-2.8-1.11-5.12-2.6-6.96-4.5c-1.84-1.89-3.23-4.07-4.16-6.56
				c-0.93-2.48-1.4-5.12-1.4-7.92c0-2.8,0.47-5.44,1.4-7.92c0.93-2.48,2.32-4.67,4.16-6.56c1.84-1.89,4.16-3.39,6.96-4.49
				c2.8-1.11,6.09-1.66,9.87-1.66c2.55,0,5.07,0.39,7.55,1.18c2.48,0.79,4.71,2.04,6.7,3.76c1.99,1.72,3.6,3.98,4.82,6.78
				c1.23,2.8,1.84,6.19,1.84,10.17v0.96H864.82z M892.53,137.23c-0.59-3.54-2.11-6.24-4.57-8.1c-2.46-1.86-5.43-2.8-8.91-2.8
				c-1.72,0-3.35,0.25-4.9,0.74c-1.55,0.49-2.95,1.21-4.2,2.14c-1.25,0.93-2.31,2.07-3.17,3.42c-0.86,1.35-1.44,2.89-1.73,4.6
				H892.53z"/>
			<path d="M915.8,142.98c0.15,2.01,0.66,3.78,1.55,5.3c0.88,1.52,1.99,2.8,3.32,3.83c1.32,1.03,2.81,1.81,4.46,2.32
				c1.64,0.51,3.28,0.77,4.9,0.77c1.03,0,2.15-0.1,3.35-0.29s2.37-0.55,3.5-1.07c1.13-0.51,2.18-1.21,3.17-2.1
				c0.98-0.88,1.79-2.01,2.43-3.39h7.81c-0.93,2.31-2.14,4.29-3.61,5.93c-1.47,1.64-3.09,3-4.86,4.05c-1.77,1.06-3.63,1.83-5.6,2.32
				c-1.97,0.49-3.9,0.74-5.82,0.74c-3.78,0-7.07-0.55-9.87-1.66c-2.8-1.11-5.12-2.6-6.96-4.5c-1.84-1.89-3.23-4.07-4.16-6.56
				c-0.93-2.48-1.4-5.12-1.4-7.92c0-2.8,0.47-5.44,1.4-7.92c0.93-2.48,2.32-4.67,4.16-6.56c1.84-1.89,4.16-3.39,6.96-4.49
				c2.8-1.11,6.09-1.66,9.87-1.66c2.55,0,5.07,0.39,7.55,1.18c2.48,0.79,4.71,2.04,6.7,3.76c1.99,1.72,3.6,3.98,4.82,6.78
				c1.23,2.8,1.84,6.19,1.84,10.17v0.96H915.8z M943.51,137.23c-0.59-3.54-2.11-6.24-4.57-8.1c-2.46-1.86-5.43-2.8-8.91-2.8
				c-1.72,0-3.35,0.25-4.9,0.74c-1.55,0.49-2.95,1.21-4.2,2.14c-1.25,0.93-2.31,2.07-3.17,3.42c-0.86,1.35-1.44,2.89-1.73,4.6
				H943.51z"/>
			<path d="M965.83,147.92c0,0.88,0.2,1.78,0.59,2.69c0.39,0.91,1.06,1.73,1.99,2.47c0.93,0.74,2.17,1.35,3.72,1.84
				c1.55,0.49,3.5,0.74,5.86,0.74c2.36,0,4.3-0.18,5.82-0.55c1.52-0.37,2.73-0.85,3.61-1.44c0.88-0.59,1.5-1.24,1.84-1.95
				c0.34-0.71,0.52-1.41,0.52-2.1c0-1.37-0.48-2.48-1.44-3.32c-0.95-0.83-2.91-1.45-5.86-1.84l-12.16-1.62
				c-1.42-0.19-2.76-0.56-4.01-1.1c-1.25-0.54-2.36-1.23-3.32-2.06s-1.72-1.84-2.29-3.02c-0.56-1.18-0.85-2.53-0.85-4.05
				c0-3.98,1.56-7.05,4.68-9.21c3.12-2.16,7.43-3.24,12.93-3.24c3.14,0,5.87,0.32,8.18,0.96c2.31,0.64,4.23,1.53,5.75,2.69
				c1.52,1.15,2.69,2.53,3.5,4.13c0.81,1.6,1.29,3.33,1.44,5.19h-7.37c-0.1-1.97-1.09-3.66-2.98-5.09
				c-1.89-1.42-4.75-2.14-8.58-2.14c-1.18,0-2.37,0.1-3.57,0.29s-2.3,0.52-3.28,0.96c-0.98,0.44-1.78,1.04-2.39,1.81
				c-0.61,0.76-0.92,1.71-0.92,2.84c0,1.28,0.42,2.31,1.25,3.09c0.83,0.79,2.55,1.35,5.16,1.7l10.46,1.4
				c4.86,0.69,8.33,1.89,10.39,3.61c2.06,1.72,3.09,3.93,3.09,6.63c0,2.26-0.45,4.21-1.36,5.86c-0.91,1.64-2.21,3.01-3.9,4.09
				c-1.69,1.08-3.73,1.89-6.12,2.43c-2.38,0.54-5.05,0.81-7.99,0.81c-2.21,0-4.45-0.17-6.7-0.52c-2.26-0.34-4.32-1.02-6.19-2.03
				c-1.86-1-3.42-2.38-4.68-4.12s-1.98-4.02-2.17-6.82H965.83z"/>
		</g>
		<g class="st5">
			<path d="M481.81,370.86c-0.29-1.82-0.88-3.55-1.77-5.2c-0.89-1.64-2.06-3.08-3.54-4.31c-1.47-1.23-3.27-2.2-5.38-2.91
				c-2.11-0.71-4.55-1.07-7.29-1.07c-3.1,0-5.9,0.44-8.4,1.33c-2.51,0.88-4.64,2.22-6.41,4.01c-1.77,1.8-3.13,4.04-4.09,6.74
				c-0.96,2.7-1.44,5.84-1.44,9.43c0,2.51,0.36,4.96,1.07,7.37c0.71,2.41,1.85,4.56,3.43,6.45c1.57,1.89,3.62,3.43,6.15,4.6
				c2.53,1.18,5.61,1.77,9.24,1.77c2.31,0,4.46-0.28,6.45-0.85c1.99-0.57,3.77-1.44,5.34-2.62c1.57-1.18,2.92-2.69,4.05-4.53
				c1.13-1.84,1.99-4.06,2.58-6.67h7.81c-0.29,2.9-1.13,5.65-2.5,8.25c-1.37,2.6-3.2,4.89-5.49,6.85c-2.28,1.97-4.97,3.51-8.07,4.64
				c-3.09,1.13-6.51,1.7-10.24,1.7c-3.34,0-6.65-0.49-9.94-1.47c-3.29-0.98-6.24-2.57-8.84-4.75c-2.6-2.18-4.73-5.05-6.37-8.58
				c-1.65-3.54-2.47-7.86-2.47-12.97c0-3.83,0.59-7.41,1.77-10.76c1.18-3.34,2.94-6.25,5.27-8.73c2.33-2.48,5.21-4.43,8.62-5.86
				c3.41-1.43,7.38-2.14,11.9-2.14c2.65,0,5.45,0.32,8.4,0.95c2.95,0.64,5.7,1.73,8.25,3.28c2.55,1.55,4.73,3.62,6.52,6.22
				c1.79,2.61,2.86,5.87,3.2,9.8H481.81z"/>
			<path d="M516.51,385.23c0-2.8,0.46-5.44,1.4-7.92c0.93-2.48,2.32-4.67,4.16-6.56c1.84-1.89,4.16-3.39,6.96-4.49
				s6.09-1.66,9.87-1.66c3.73,0,7.01,0.55,9.84,1.66c2.82,1.11,5.16,2.6,7,4.49s3.23,4.08,4.16,6.56c0.93,2.48,1.4,5.12,1.4,7.92
				c0,2.8-0.47,5.44-1.4,7.92c-0.94,2.48-2.32,4.67-4.16,6.56c-1.84,1.89-4.18,3.39-7,4.5c-2.83,1.11-6.1,1.66-9.84,1.66
				c-3.78,0-7.07-0.55-9.87-1.66s-5.12-2.6-6.96-4.5c-1.84-1.89-3.23-4.07-4.16-6.56C516.97,390.66,516.51,388.03,516.51,385.23z
				 M553.49,385.23c0-1.77-0.26-3.51-0.78-5.23c-0.51-1.72-1.35-3.25-2.51-4.6c-1.15-1.35-2.67-2.46-4.53-3.32
				c-1.87-0.86-4.13-1.29-6.78-1.29c-2.65,0-4.91,0.43-6.78,1.29c-1.87,0.86-3.38,1.97-4.53,3.32c-1.15,1.35-1.99,2.89-2.51,4.6
				c-0.51,1.72-0.77,3.46-0.77,5.23c0,1.77,0.26,3.51,0.77,5.23c0.52,1.72,1.35,3.25,2.51,4.6c1.15,1.35,2.67,2.46,4.53,3.32
				c1.86,0.86,4.12,1.29,6.78,1.29c2.65,0,4.91-0.43,6.78-1.29c1.86-0.86,3.37-1.97,4.53-3.32c1.15-1.35,1.99-2.88,2.51-4.6
				C553.23,388.74,553.49,386.99,553.49,385.23z"/>
			<path d="M589.37,351.48h7.37v53.04h-7.37V351.48z"/>
			<path d="M626.5,351.48h7.37v53.04h-7.37V351.48z"/>
			<path d="M669.74,387.44c0.15,2.01,0.66,3.78,1.55,5.3c0.89,1.52,1.99,2.8,3.32,3.83c1.33,1.03,2.81,1.81,4.46,2.32
				c1.64,0.51,3.28,0.77,4.9,0.77c1.03,0,2.15-0.1,3.35-0.29c1.2-0.2,2.37-0.55,3.5-1.07c1.13-0.51,2.18-1.21,3.17-2.1
				c0.98-0.88,1.79-2.01,2.43-3.39h7.81c-0.93,2.31-2.14,4.29-3.61,5.93c-1.47,1.64-3.1,3-4.86,4.05c-1.77,1.06-3.64,1.83-5.6,2.32
				c-1.97,0.49-3.9,0.74-5.82,0.74c-3.78,0-7.07-0.55-9.87-1.66s-5.12-2.6-6.96-4.5c-1.84-1.89-3.23-4.07-4.16-6.56
				c-0.93-2.48-1.4-5.12-1.4-7.92c0-2.8,0.47-5.44,1.4-7.92c0.93-2.48,2.32-4.67,4.16-6.56c1.84-1.89,4.16-3.39,6.96-4.49
				s6.09-1.66,9.87-1.66c2.55,0,5.07,0.39,7.55,1.18c2.48,0.79,4.72,2.04,6.7,3.76c1.99,1.72,3.6,3.98,4.83,6.78
				c1.23,2.8,1.84,6.19,1.84,10.17v0.96H669.74z M697.45,381.69c-0.59-3.54-2.11-6.24-4.57-8.1c-2.46-1.86-5.43-2.8-8.91-2.8
				c-1.72,0-3.35,0.25-4.9,0.74c-1.55,0.49-2.95,1.21-4.2,2.14c-1.25,0.93-2.31,2.07-3.17,3.42c-0.86,1.35-1.44,2.89-1.73,4.6
				H697.45z"/>
			<path d="M772.96,390.38c-0.79,2.9-1.81,5.33-3.06,7.29c-1.25,1.97-2.73,3.56-4.42,4.79c-1.69,1.23-3.6,2.1-5.71,2.62
				s-4.42,0.78-6.92,0.78c-3.83,0-7.09-0.59-9.76-1.77c-2.68-1.18-4.84-2.74-6.48-4.68c-1.64-1.94-2.85-4.12-3.61-6.56
				c-0.76-2.43-1.14-4.9-1.14-7.4c0-2.85,0.44-5.54,1.33-8.07c0.88-2.53,2.2-4.74,3.94-6.63s3.91-3.39,6.52-4.49
				c2.6-1.11,5.64-1.66,9.13-1.66c2.55,0,4.97,0.29,7.26,0.88c2.28,0.59,4.31,1.47,6.08,2.65c1.77,1.18,3.23,2.65,4.38,4.42
				c1.15,1.77,1.93,3.86,2.32,6.26H765c-0.44-2.51-1.65-4.47-3.61-5.9c-1.97-1.42-4.67-2.14-8.1-2.14c-2.36,0-4.4,0.37-6.12,1.11
				c-1.72,0.74-3.13,1.74-4.23,3.02c-1.11,1.28-1.93,2.8-2.47,4.57c-0.54,1.77-0.81,3.69-0.81,5.75c0,2.06,0.27,3.98,0.81,5.75
				c0.54,1.77,1.36,3.29,2.47,4.57c1.1,1.28,2.51,2.28,4.23,3.02c1.72,0.74,3.76,1.11,6.12,1.11c3.39,0,6-0.74,7.85-2.21
				c1.84-1.47,3.18-3.83,4.02-7.07H772.96z"/>
			<path d="M803.97,354.06h7.37v11.86h11.05v5.75h-11.05v23.79c0,1.57,0.53,2.67,1.59,3.28c1.05,0.61,2.51,0.92,4.38,0.92
				c0.83,0,1.68-0.05,2.54-0.15c0.86-0.1,1.71-0.22,2.54-0.37v6.19c-1.28,0.25-2.59,0.39-3.94,0.44s-2.79,0.08-4.31,0.08
				c-3.68,0-6.3-0.82-7.85-2.47s-2.32-3.87-2.32-6.67v-25.05h-7.96v-5.75h7.96V354.06z"/>
			<path d="M848.77,351.48h7.37v8.1h-7.37V351.48z M848.77,365.92h7.37v38.6h-7.37V365.92z"/>
			<path d="M884.2,385.23c0-2.8,0.47-5.44,1.4-7.92c0.93-2.48,2.32-4.67,4.16-6.56s4.16-3.39,6.96-4.49s6.09-1.66,9.87-1.66
				c3.73,0,7.01,0.55,9.83,1.66c2.83,1.11,5.16,2.6,7,4.49s3.23,4.08,4.16,6.56c0.93,2.48,1.4,5.12,1.4,7.92
				c0,2.8-0.47,5.44-1.4,7.92c-0.93,2.48-2.32,4.67-4.16,6.56c-1.84,1.89-4.17,3.39-7,4.5c-2.83,1.11-6.1,1.66-9.83,1.66
				c-3.78,0-7.07-0.55-9.87-1.66s-5.12-2.6-6.96-4.5c-1.84-1.89-3.23-4.07-4.16-6.56C884.67,390.66,884.2,388.03,884.2,385.23z
				 M921.18,385.23c0-1.77-0.26-3.51-0.77-5.23c-0.52-1.72-1.35-3.25-2.51-4.6c-1.15-1.35-2.67-2.46-4.53-3.32
				c-1.87-0.86-4.12-1.29-6.78-1.29c-2.65,0-4.91,0.43-6.78,1.29c-1.87,0.86-3.38,1.97-4.53,3.32c-1.16,1.35-1.99,2.89-2.51,4.6
				c-0.52,1.72-0.78,3.46-0.78,5.23c0,1.77,0.26,3.51,0.78,5.23c0.51,1.72,1.35,3.25,2.51,4.6c1.15,1.35,2.66,2.46,4.53,3.32
				c1.87,0.86,4.13,1.29,6.78,1.29c2.65,0,4.91-0.43,6.78-1.29c1.87-0.86,3.38-1.97,4.53-3.32c1.15-1.35,1.99-2.88,2.51-4.6
				C920.92,388.74,921.18,386.99,921.18,385.23z"/>
			<path d="M957.06,365.92h7.37v5.82h0.15c1.82-2.7,4.09-4.57,6.82-5.6c2.72-1.03,5.49-1.55,8.29-1.55c2.31,0,4.46,0.26,6.45,0.77
				c1.99,0.52,3.71,1.33,5.15,2.43c1.45,1.11,2.58,2.52,3.39,4.23c0.81,1.72,1.21,3.78,1.21,6.19v26.3h-7.36V379.7
				c0-2.85-0.91-5.05-2.73-6.59c-1.82-1.55-4.72-2.32-8.69-2.32c-1.67,0-3.27,0.25-4.79,0.74c-1.52,0.49-2.87,1.22-4.06,2.17
				c-1.18,0.96-2.11,2.15-2.8,3.57c-0.69,1.42-1.03,3.09-1.03,5.01v22.25h-7.37V365.92z"/>
		</g>
	</g>
</g>
</svg>
