<?xml version="1.0" encoding="utf-8"?>
<!-- Generator: Adobe Illustrator 24.0.0, SVG Export Plug-In . SVG Version: 6.00 Build 0)  -->
<svg version="1.1" id="Layer_1" xmlns="http://www.w3.org/2000/svg" xmlns:xlink="http://www.w3.org/1999/xlink" x="0px" y="0px"
	 viewBox="0 0 500 500" style="enable-background:new 0 0 500 500;" xml:space="preserve">
<style type="text/css">
	.st0{fill:#B3B3B3;}
	.st1{fill:#7FFF00;}
	.st2{fill:#008000;}
</style>
<g>
	<rect x="138.94" y="289.97" class="st0" width="221.43" height="32.83"/>
	<g>
		<path d="M163.14,440.5c-8.91,0-17.81,0-26.72,0c-2.93-2.29-3.63-5.16-2.89-8.8c5.1-25.05,10.09-50.12,15.11-75.19
			c1.8-9.01,3.59-18.02,5.45-27.34c-3.92,0-7.39-0.16-10.83,0.03c-8.99,0.51-10.83-2.11-10.25-9.75c0.03-0.35-0.15-0.71-0.3-1.41
			c-1.29,0-2.63,0-3.97,0c-10.51,0-21.02,0-31.54,0c-7.26,0-8.66-1.38-8.66-8.65c0-72.72,0-145.44,0-218.15
			c0-7.04,1.44-8.47,8.46-8.47c43.9,0,87.81,0,131.71,0c1.43,0,2.87,0,3.9,0c0.74-4.42,0.93-8.43,2.13-12.12
			c1.78-5.43,6.5-8.08,11.51-10.15c2.47,0,4.95,0,7.42,0c10.31,3.76,14.17,11.49,12.86,22.27c2.12,0,3.59,0,5.05,0
			c43.65,0,87.31,0,130.96,0c1.11,0,2.23-0.06,3.34,0.03c3.13,0.27,5.01,1.96,5.37,5.11c0.17,1.47,0.12,2.96,0.12,4.44
			c0,71.97,0,143.95,0,215.92c0,0.87,0.01,1.73-0.01,2.6c-0.11,5.29-1.94,7.14-7.17,7.16c-5.94,0.03-11.87,0.01-17.81,0.01
			c-6.41,0-12.82,0-19.31,0c-0.09,1.19-0.2,2.04-0.22,2.9c-0.18,6.85-1.57,8.23-8.35,8.23c-4.15,0-8.31,0-12.53,0
			c0.09,0.81,0.11,1.18,0.18,1.54c6.68,33.42,13.32,66.85,20.09,100.26c0.78,3.83,0.52,7.02-2.74,9.53c-8.91,0-17.81,0-26.72,0
			c-1.2-2.05-2.93-3.97-3.5-6.18c-1.37-5.25-2.17-10.64-3.24-15.97c-1.5-7.45-3.03-14.89-4.52-22.23c-50.64,0-100.83,0-151.16,0
			c-2.51,12.45-4.87,24.81-7.58,37.1C166.24,435.79,164.4,438.08,163.14,440.5z M144.81,317.58c70.17,0,140.09,0,210.14,0
			c0-7.26,0-14.23,0-21.64c-6.69,0-13.09,0-19.49,0c-42.79,0-115.27,0-158.06-0.01c-4.67,0-7.37-2.06-7.27-5.48
			c0.1-3.7,2.61-5.81,7.08-5.81c50.95-0.01,131.59-0.01,182.54,0c5.2,0,7.06,1.89,7.11,7.2c0.05,4.9,0.01,9.81,0.01,14.85
			c11.29,0,22.12,0,33.08,0c0-70.97,0-141.73,0-212.6c-100.15,0-200.02,0-299.98,0c0,70.98,0,141.75,0,212.59
			c11.11,0,21.93,0,33.11,0c0-5.13-0.05-10.06,0.01-14.98c0.07-5.26,1.92-7.06,7.24-7.07c13.73-0.02,27.45-0.02,41.18,0
			c4.71,0.01,7.32,2.18,7.3,5.97c-0.02,3.38-2.69,5.31-7.45,5.32c-10.88,0.01-21.77,0-32.65,0c-1.3,0-2.6,0-3.92,0
			C144.81,303.52,144.81,310.51,144.81,317.58z M181.11,362.42c46,0,91.72,0,137.74,0c-2.24-11.16-4.43-22.12-6.61-33.02
			c-41.71,0-83.08,0-124.53,0C185.49,340.47,183.32,351.35,181.11,362.42z M177.01,384.41c48.64,0,96.9,0,145.74,0
			c-0.71-3.66-1.36-6.96-2.02-10.36c-47.43,0-94.48,0-141.71,0C178.35,377.53,177.7,380.88,177.01,384.41z M165.72,329.62
			c-6.67,33.15-13.31,66.17-20.01,99.44c3.82,0,6.99,0,10.5,0c6.57-33.09,13.12-66.1,19.74-99.44
			C172.21,329.62,169.29,329.62,165.72,329.62z M354.24,429.03c-6.71-33.35-13.37-66.42-20-99.3c-3.59,0-6.6,0-10.23,0
			c6.63,33.37,13.18,66.35,19.72,99.3C347.34,429.03,350.51,429.03,354.24,429.03z M244.99,82.33c3.46,0,6.7,0,10.11,0
			c-0.12-3.6,1.4-7.49-2.49-9.54c-1.44-0.76-4.06-0.73-5.44,0.1C243.52,75.1,244.86,78.86,244.99,82.33z"/>
		<path class="st0" d="M177.01,384.41c0.69-3.53,1.34-6.88,2.02-10.36c47.23,0,94.28,0,141.71,0c0.66,3.4,1.31,6.7,2.02,10.36
			C273.91,384.41,225.65,384.41,177.01,384.41z"/>
		<path class="st0" d="M165.72,329.62c3.56,0,6.49,0,10.23,0c-6.62,33.34-13.17,66.35-19.74,99.44c-3.51,0-6.68,0-10.5,0
			C152.41,395.79,159.05,362.77,165.72,329.62z"/>
		<path class="st0" d="M354.24,429.03c-3.73,0-6.9,0-10.5,0c-6.55-32.96-13.1-65.93-19.72-99.3c3.63,0,6.64,0,10.23,0
			C340.87,362.61,347.53,395.68,354.24,429.03z"/>
		<g>
			<circle class="st1" cx="196.8" cy="186.59" r="40"/>
			<path class="st2" d="M243.03,226.6c0,0-47.52-32.04,0-81.8C285.66,172.23,254.89,217.28,243.03,226.6z"/>
			<path class="st1" d="M291.28,221.73c0,0-8.28,10.45-21.68,10.45c-13.41,0-25.61-10.01-25.61-26.08s13.46-27.38,20.72-27.38
				c1.86-9.88,6.32-25.4,25.4-25.4s27.23,17.62,27.23,20.18c4.89,3.26,21.77,8.62,21.77,27.71s-16.18,26.08-25.02,26.08
				C305.22,227.3,291.28,221.73,291.28,221.73z"/>
			<g>
				<path d="M194.22,228.47v35.64c-0.02,1.7,1.33,3.1,3.03,3.12c1.7,0.02,3.1-1.33,3.12-3.03c0-0.03,0-0.06,0-0.09v-35.65
					c10.29-0.71,19.96-5.21,27.12-12.63c3.45,5.35,7.81,10.05,12.88,13.89v34.4c-0.02,1.7,1.33,3.1,3.03,3.12
					c1.7,0.02,3.1-1.33,3.12-3.03c0-0.03,0-0.06,0-0.09v-34.45c1.13-0.85,2.21-1.8,3.28-2.75c10.51,10.16,26.92,10.97,38.39,1.9
					v35.3c-0.02,1.7,1.33,3.1,3.03,3.12s3.1-1.33,3.12-3.03c0-0.03,0-0.06,0-0.09v-39.93c12.82,10.09,31.4,7.87,41.49-4.95
					c10.09-12.82,7.87-31.4-4.95-41.49c-3.26-2.57-7.02-4.42-11.05-5.43c-3.57-15.89-19.34-25.88-35.23-22.31
					c-9,2.02-16.53,8.13-20.36,16.51c-3.87-9.75-10.48-18.17-19.02-24.25c-1.06-0.75-2.49-0.75-3.55,0
					c-5.64,4.03-10.45,9.09-14.19,14.92c-16.19-16.69-42.84-17.09-59.52-0.91s-17.09,42.84-0.91,59.52
					C174.25,223.21,183.92,227.72,194.22,228.47L194.22,228.47z M200.37,222.3v-12.89l13.74-11.94l6.23,4.06
					c0.2,0.09,0.42,0.15,0.64,0.19c0.36,1.23,0.73,2.45,1.18,3.66c0.64,1.63,1.36,3.22,2.16,4.77
					C218.24,217.17,209.64,221.53,200.37,222.3z M219.22,193.03c0.02,0.15,0.04,0.3,0.06,0.45l-0.33-0.22L219.22,193.03z
					 M291.07,155.43c11.54,0.06,21.34,8.45,23.2,19.84c0.01,0.04,0.03,0.07,0.04,0.11c0.13,0.38,0.28,0.75,0.45,1.1
					c0.11,0.15,0.24,0.28,0.38,0.41c0.13,0.15,0.28,0.29,0.43,0.42c0.16,0.09,0.33,0.17,0.51,0.24c0.19,0.1,0.39,0.18,0.59,0.24
					l0.09,0.04c12.75,2.34,21.2,14.57,18.86,27.33s-14.57,21.2-27.33,18.86c-5.03-0.92-9.62-3.46-13.07-7.23
					c-0.13-0.12-0.28-0.23-0.43-0.32c-0.09-0.09-0.18-0.17-0.28-0.25c-0.04-0.02-0.08-0.02-0.13-0.04l-0.04-0.03v-12.16l15.42-18.93
					c1.03-1.35,0.77-3.28-0.58-4.32c-1.29-0.99-3.13-0.8-4.2,0.43l-10.64,13.06v-10.29c0.02-1.7-1.33-3.1-3.03-3.12
					c-1.7-0.02-3.1,1.33-3.12,3.03c0,0.03,0,0.06,0,0.09v24.86l-12.17-14.95c-1.08-1.31-3.02-1.51-4.33-0.43
					c-1.31,1.07-1.51,3-0.44,4.31l16.95,20.82v1.63c-4.4,5.55-11.1,8.78-18.19,8.77c-12.97-0.01-23.48-10.53-23.47-23.5
					c0.01-11.07,7.74-20.63,18.56-22.95l0.1-0.02c1.59-0.32,3.2-0.49,4.82-0.49c1.7,0,3.08-1.38,3.08-3.08
					c0-1.7-1.38-3.07-3.08-3.08c-0.72,0-1.43,0.06-2.13,0.11C269.36,164.26,279.29,155.48,291.07,155.43z M243.46,148.61
					c9.15,7.13,15.41,17.32,17.64,28.7c-5.78,1.79-10.86,5.32-14.57,10.11V175.2c0.02-1.7-1.33-3.1-3.03-3.12
					c-1.7-0.02-3.1,1.33-3.12,3.03c0,0.03,0,0.06,0,0.09v4.74l-6.02-6.78c-1.13-1.27-3.07-1.39-4.34-0.26
					c-1.27,1.13-1.39,3.07-0.26,4.34l10.62,11.97v32.52c-3.91-3.61-7.2-7.84-9.73-12.52l0-0.01l-0.01-0.01
					c-1.04-1.93-1.95-3.93-2.71-5.98c-1.89-5.13-2.9-10.54-2.96-16c0.13-0.5,0.13-1.02,0.01-1.52c0.07-5.43,1.06-10.8,2.95-15.89
					c0.76-2.06,1.67-4.06,2.71-5.99l0.01-0.02l0.01-0.02C233.82,157.89,238.18,152.73,243.46,148.61z M197.31,150.55
					c10.37-0.01,20.23,4.49,27.02,12.33c-0.81,1.56-1.53,3.15-2.17,4.78c-2.07,5.62-3.19,11.55-3.3,17.54l-18.47,16.06V175.2
					c0.02-1.7-1.33-3.1-3.03-3.12c-1.7-0.02-3.1,1.33-3.12,3.03c0,0.03,0,0.06,0,0.09v5.21l-13.93-10.28
					c-1.35-1.03-3.28-0.76-4.31,0.59c-1.03,1.35-0.76,3.28,0.59,4.31c0.02,0.02,0.04,0.03,0.07,0.05l2.06,1.52l-3.9,2.59
					c-1.42,0.94-1.8,2.85-0.87,4.26c0.57,0.86,1.54,1.38,2.57,1.38c0.61,0,1.2-0.18,1.7-0.51l5.76-3.83l10.26,7.57v34.26
					c-19.78-1.69-34.45-19.1-32.76-38.88C163.05,164.83,178.63,150.54,197.31,150.55L197.31,150.55z"/>
				<path d="M349.44,158.34c-2.67-6.37-8.53-10.83-15.37-11.72c-1.09-0.14-2.17,0.31-2.83,1.18c-6.48,8.49-4.85,20.62,3.64,27.1
					c2.7,2.06,5.89,3.37,9.26,3.81c0.13,0.02,0.26,0.02,0.4,0.02c0.96,0,1.87-0.45,2.45-1.21
					C351.14,172.02,352.08,164.72,349.44,158.34L349.44,158.34z M343.09,172.23c-7.02-1.94-11.14-9.2-9.2-16.21
					c0.28-1.02,0.69-2.01,1.2-2.93c7.02,1.94,11.14,9.2,9.2,16.21C344.01,170.32,343.61,171.3,343.09,172.23L343.09,172.23z"/>
				<path d="M262.78,151.3c0.13,0,0.26-0.01,0.4-0.02c10.59-1.37,18.07-11.06,16.71-21.66c-0.43-3.36-1.75-6.55-3.8-9.25
					c-0.67-0.87-1.75-1.32-2.84-1.18c-10.59,1.36-18.08,11.06-16.71,21.65c0.43,3.36,1.74,6.55,3.8,9.25
					C260.91,150.85,261.82,151.3,262.78,151.3z M263.55,133.28L263.55,133.28c1.56-3.73,4.75-6.54,8.65-7.63
					c3.56,6.35,1.29,14.39-5.06,17.94c-0.93,0.52-1.91,0.92-2.93,1.2C262.24,141.26,262,137.02,263.55,133.28z"/>
				<path d="M165.91,250.59c0.13,0.02,0.26,0.02,0.4,0.02c0.96,0,1.87-0.45,2.45-1.22c4.17-5.5,5.11-12.8,2.46-19.17
					c-2.67-6.37-8.52-10.84-15.37-11.72c-1.09-0.13-2.17,0.32-2.83,1.19c-6.48,8.49-4.84,20.63,3.65,27.1
					C159.35,248.84,162.54,250.15,165.91,250.59L165.91,250.59z M156.88,224.97c3.9,1.08,7.09,3.89,8.65,7.62v0
					c1.55,3.74,1.31,7.98-0.66,11.52c-7.02-1.94-11.14-9.2-9.2-16.21C155.96,226.87,156.36,225.89,156.88,224.97z"/>
				<path d="M213.66,141.7c0.13,0.02,0.26,0.03,0.4,0.02c0.96,0,1.87-0.45,2.45-1.21c6.47-8.49,4.84-20.63-3.66-27.1
					c-2.7-2.06-5.89-3.37-9.25-3.8c-1.09-0.14-2.17,0.31-2.83,1.19c-6.48,8.49-4.84,20.63,3.65,27.1
					C207.11,139.96,210.3,141.27,213.66,141.7L213.66,141.7z M204.64,116.08c7.02,1.94,11.13,9.2,9.19,16.22
					c-0.28,1.02-0.69,2-1.2,2.93c-7.02-1.94-11.13-9.2-9.19-16.22C203.72,117.99,204.12,117.01,204.64,116.08z"/>
			</g>
		</g>
	</g>
</g>
</svg>
