<?xml version="1.0" encoding="utf-8"?>
<!-- Generator: Adobe Illustrator 24.0.0, SVG Export Plug-In . SVG Version: 6.00 Build 0)  -->
<svg version="1.1" id="Layer_1" xmlns="http://www.w3.org/2000/svg" xmlns:xlink="http://www.w3.org/1999/xlink" x="0px" y="0px"
	 viewBox="0 0 500 500" style="enable-background:new 0 0 500 500;" xml:space="preserve">
<style type="text/css">
	.st0{fill:#B3B3B3;}
	.st1{fill:#7FFF00;}
	.st2{fill:#008000;}
</style>
<g>
	<path class="st0" d="M155.59,311.67h-20.41v121.41H363.4V311.67h-19.1v101.65c0,0-25.78-11.4-94.3,15.71
		c-53.18-16.18-65.23-20.89-93.93-15.71C155.59,335.2,155.59,311.67,155.59,311.67z"/>
	<path class="st1" d="M244.83,197.46c-14.05,3.21-31.35-26.17-31.35-34.8s15.03-33.38,33.1-15.3c16.78-17.8,32.78,6.06,32.78,15.31
		C279.36,171.9,260.66,193.84,244.83,197.46z"/>
	<path class="st2" d="M216.27,236.05c0,0,8.03-5.43,3.09-14.32s-11.89-10.77-10.77-22.06s-0.29-8.65-8.29-13.97
		c-8-5.32-16.08-18.03-19.1-30.26c-3.02-12.24-5.89-10.64-5.89-10.64s-11.01,31.61,5.89,58.2S216.27,236.05,216.27,236.05z"/>
	<path class="st2" d="M322.89,185.17c0,0-3.18-11.35-13.48-15.37c-10.29-4.02-11.27-8.22-10.29-16.47
		c0.98-8.25-9.81-18.24-14.55-18.89c-4.74-0.65-26.1-11.17-32.04-15.28c-5.93-4.11-1.37-4.59,3.32-9.57s9.39-19.57,9.39-19.57
		s32.36,7.35,48,35.64S322.89,185.17,322.89,185.17z"/>
	<g id="education_earth_awareness">
		<path d="M332.35,60.5H166.23c-17.14,0.02-31.02,13.91-31.04,31.04v149.21c0.03,17.13,13.91,31,31.04,31.02h61.53
			c0.05,0,0.1,0.03,0.13,0.08l12.14,19.23c3.23,5.1,9.97,6.62,15.07,3.39c1.37-0.87,2.53-2.02,3.39-3.39l12.14-19.23
			c0.03-0.05,0.08-0.08,0.13-0.08h62.2c16.8-0.02,30.41-13.63,30.43-30.43V91.54C363.38,74.41,349.49,60.52,332.35,60.5z
			 M352.63,241.35c-0.02,10.85-8.81,19.65-19.67,19.66h-62.13c-3.76,0-7.25,1.94-9.23,5.13l-12.14,19.23
			c-0.06,0.08-0.17,0.09-0.25,0.03c-0.01-0.01-0.02-0.02-0.03-0.03l-12.2-19.23c-1.99-3.18-5.48-5.1-9.23-5.1h-61.53
			c-11.2-0.01-20.27-9.09-20.27-20.28V91.54c0.01-11.19,9.08-20.26,20.27-20.27h166.12c11.19,0.01,20.26,9.08,20.27,20.27V241.35z"
			/>
		<path d="M363.55,305.77h-13.81v-2.01c0-2.3-1.46-4.36-3.65-5.1c-11.92-3.69-24.34-5.48-36.81-5.3
			c-24.65,0.36-44.93,9.06-59.08,25.24c-14.15-16.15-34.43-24.88-59.09-25.24c-12.48-0.17-24.91,1.62-36.83,5.3
			c-2.18,0.75-3.64,2.8-3.64,5.1v2.01h-14.14c-2.97,0-5.38,2.41-5.38,5.38v123.99c0,0.19,0,0.38,0,0.56l0.05,0.28
			c0,0.14,0.05,0.27,0.08,0.4l0.07,0.28c0.06,0.19,0.12,0.37,0.19,0.55c0,0.03,0,0.06,0,0.09l0.1,0.18
			c0.06,0.12,0.12,0.25,0.19,0.37c0.07,0.12,0.1,0.15,0.15,0.23c0.11,0.17,0.23,0.34,0.36,0.49l0.14,0.15
			c0.12,0.12,0.23,0.25,0.35,0.36l0.15,0.13c0.17,0.15,0.35,0.28,0.54,0.41l0.08,0.05c0.18,0.11,0.36,0.22,0.55,0.31l0.12,0.05
			c0.22,0.1,0.44,0.19,0.67,0.25l0,0c0.21,0.06,0.43,0.11,0.65,0.15h0.17c0.23,0.03,0.47,0.05,0.71,0.05h227.13
			c0.24,0,0.48-0.02,0.72-0.05h0.17c0.21-0.03,0.41-0.08,0.62-0.14h0.06c0.22-0.07,0.44-0.15,0.65-0.25l0.14-0.07
			c0.18-0.08,0.35-0.18,0.51-0.28l0.11-0.06c0.18-0.12,0.36-0.26,0.53-0.4l0.13-0.12c0.14-0.12,0.27-0.25,0.39-0.39l0.09-0.11
			c0.15-0.17,0.29-0.36,0.41-0.55l0.07-0.11c0.12-0.2,0.23-0.4,0.32-0.61l0,0l0,0c0.1-0.23,0.18-0.46,0.25-0.7c0-0.03,0-0.07,0-0.1
			c0.05-0.2,0.09-0.4,0.12-0.61c0-0.05,0-0.09,0-0.13c0.02-0.21,0.04-0.42,0.04-0.63V311.15C368.87,308.2,366.5,305.8,363.55,305.77
			z M141.9,316.54h8.74v95.33l-8.74,9.48V316.54z M148.82,429.76l10-10.81c1.43-0.25,2.83-0.46,4.21-0.65
			c13.77-2.03,27.79-1.67,41.44,1.06c6.46,1.32,12.79,3.25,18.89,5.75c3.32,1.37,6.56,2.92,9.71,4.65H148.82z M244.83,424.25
			c-2.31-1.54-5.1-3.21-8.29-4.89c-9.62-5.04-19.92-8.67-30.57-10.77c-8.11-1.61-16.35-2.41-24.61-2.39
			c-6.68,0.01-13.34,0.5-19.95,1.46V307.8c0.77-0.21,1.7-0.44,2.72-0.68c8.89-2.09,18.01-3.09,27.14-2.98
			c18.04,0.32,32.9,5.38,44.36,15.16c3.4,2.89,6.48,6.15,9.18,9.71L244.83,424.25z M255.6,424.25v-95.23
			c2.71-3.57,5.81-6.83,9.23-9.73c11.47-9.74,26.32-14.82,44.35-15.14c9.09-0.11,18.16,0.89,27.02,2.95
			c1.06,0.25,2.02,0.49,2.84,0.71v99.86c-14.79-2.21-29.86-1.89-44.54,0.95c-10.66,2.1-20.95,5.72-30.57,10.77
			c-3.26,1.66-6.02,3.33-8.35,4.87H255.6z M267.4,429.76c3.15-1.73,6.39-3.28,9.71-4.65c6.08-2.51,12.38-4.44,18.83-5.75
			c14.15-2.79,28.69-3.08,42.94-0.85c0.95,0.14,1.87,0.28,2.77,0.45l9.79,10.81L267.4,429.76z M358.19,421.19l-8.45-9.29v-95.37
			h8.42L358.19,421.19z"/>
		<path d="M317.11,389.38c2.92,0.55,5.74-1.37,6.29-4.29c0.54-2.84-1.27-5.6-4.08-6.25c-30.39-6.36-47.93,9.31-48.66,10
			c-2.2,2-2.37,5.4-0.37,7.6c2,2.2,5.4,2.37,7.6,0.37c0.01-0.01,0.03-0.03,0.04-0.04C278.07,396.63,292.06,384.13,317.11,389.38z"/>
		<path d="M273.58,374.05c1.35,0,2.65-0.5,3.64-1.42c0.14-0.13,14.14-12.63,39.18-7.38c2.91,0.61,5.77-1.26,6.38-4.17
			c0.61-2.91-1.26-5.77-4.17-6.38c-30.39-6.35-47.92,9.31-48.66,10c-2.2,2-2.35,5.41-0.35,7.61c1.02,1.12,2.47,1.76,3.98,1.75
			L273.58,374.05z"/>
		<path d="M179.69,378.84c-2.92,0.55-4.84,3.37-4.29,6.29c0.55,2.92,3.37,4.84,6.29,4.29c0.07-0.01,0.14-0.03,0.2-0.04
			c24.68-5.17,38.55,6.83,39.23,7.4c2.25,1.94,5.65,1.69,7.59-0.57c1.86-2.16,1.71-5.4-0.34-7.39
			C227.62,388.14,210.07,372.47,179.69,378.84z"/>
		<path d="M180.39,354.7c-2.91,0.61-4.78,3.46-4.17,6.38c0.61,2.91,3.46,4.78,6.38,4.17l0,0c24.69-5.17,38.56,6.82,39.23,7.4
			c2.2,2,5.6,1.84,7.61-0.35c2-2.2,1.84-5.6-0.35-7.61l0,0C228.33,364.02,210.78,348.34,180.39,354.7z"/>
		<path d="M248.37,83.77c-1.35,0-2.72,0-4.01,0.08c-44.96,2.07-79.72,40.2-77.65,85.16c1.43,31.05,20.4,58.58,48.91,70.98l0.45,0.55
			l0.28-0.23c9.99,4.25,20.73,6.46,31.59,6.49h0.22c22,0.08,43.08-8.81,58.39-24.61c3.04-3.11,5.82-6.45,8.33-10
			c9.62-13.65,14.79-29.94,14.81-46.64l0,0c0.14-45.03-36.25-81.64-81.27-81.78C248.39,83.77,248.38,83.77,248.37,83.77z
			 M186.52,200.13c-6.04-10.69-9.2-22.77-9.16-35.06c0.01-2.83,0.19-5.65,0.54-8.46c3.18,7.11,5.38,13.44,5,16.07l-0.2,1.54
			l0.77,1.35c5.06,7.94,12.72,13.87,21.67,16.77c0.24,2.48-0.62,8.46-2.04,13.61l-0.56,2.07l1.22,1.77
			c0.59,0.85,5.67,8.05,12.04,11.89c0.49,1.11,0.98,3.28-0.63,6.21C203.16,221.56,193.22,211.93,186.52,200.13z M306.05,205.95
			c-18.44,26.32-52.32,36.87-82.44,25.67c3.51-7.01,1.49-13.21-0.77-16.15l-0.63-0.82l-0.92-0.47c-3.27-1.7-6.71-5.51-8.68-7.99
			c3.29-13.18,2.13-20.66-3.45-22.27c-6.84-1.99-12.82-6.18-17.03-11.93c-0.21-8.1-6.81-21.86-10.94-29.69
			c0.25-0.77,0.52-1.49,0.77-2.23c3.48-9.13,8.83-17.44,15.7-24.4c7.47-7.57,16.54-13.38,26.54-16.99
			c6.63-2.37,13.57-3.74,20.61-4.05c1.06-0.05,2.15-0.08,3.26-0.08h0.21c3.49,0.01,6.98,0.28,10.43,0.81
			c-1.48,3.43-2.86,7.14-3.21,9.71c-0.52,0.52-1.48,1.31-2.16,1.88c-3.22,2.66-7.24,5.98-7.11,10.77c0.05,1.85,0.77,4.58,4.08,7
			c6.02,4.45,14.91,8.67,27.14,12.88c3.17,1.09,9.65,3.33,11.07,4.87c0.49,2.31,1.97,4.71,3.67,7.48c0.93,1.44,1.77,2.94,2.51,4.49
			c-0.12,0.33-0.28,0.77-0.42,1.11c-1.2,3.08-4.4,11.18,3.52,15.28c4.09,2.05,10.58,5.23,13.65,6.54c1.59,2.8,3.04,5.68,4.32,8.64
			C313.6,193.13,310.32,199.86,306.05,205.95z M318.63,171.49c-1.33-1.82-2.16-2.11-2.98-2.39c-1.16-0.4-7.69-3.48-13.58-6.51
			c-0.08-0.04-0.15-0.09-0.22-0.14c-0.05-0.77,0.68-2.64,1.05-3.57c0.44-1.03,0.79-2.09,1.04-3.18c0.64-3.31-1.44-6.7-3.85-10.62
			c-0.95-1.44-1.79-2.96-2.49-4.54c-1-6.15-8.81-8.86-17.1-11.71c-11.18-3.85-19.47-7.75-24.66-11.58l0,0
			c1.07-1.15,2.22-2.21,3.45-3.18c2.79-2.31,5.42-4.48,5.42-7.77c0.08-1.14,1.48-4.86,3.28-8.91c30.26,8.81,51.04,36.59,50.94,68.11
			c-0.05,2-0.17,3.99-0.35,5.98H318.63z"/>
		<path d="M260.82,136.61c-5.14-0.01-10.14,1.66-14.24,4.74c-10.5-7.86-25.39-5.73-33.25,4.77c-3.08,4.11-4.74,9.1-4.74,14.24v3.59
			c-0.02,7.73,3.52,15.05,9.61,19.81l21.24,16.74c4.18,3.31,10.09,3.31,14.27,0l21.25-16.74c6.08-4.77,9.63-12.08,9.61-19.81v-3.59
			C284.56,147.25,273.93,136.63,260.82,136.61z M273.8,163.96c0.01,4.43-2.02,8.62-5.51,11.35l-21.25,16.75
			c-0.28,0.21-0.66,0.21-0.93,0l-21.25-16.75c-3.49-2.73-5.52-6.92-5.51-11.35v-3.59c-0.02-7.17,5.78-13,12.95-13.01
			c3.93-0.01,7.65,1.76,10.12,4.81c1.88,2.3,5.27,2.65,7.58,0.77c0.28-0.23,0.54-0.49,0.77-0.77c4.51-5.57,12.69-6.43,18.26-1.92
			c3.05,2.47,4.82,6.19,4.81,10.12L273.8,163.96z"/>
	</g>
</g>
</svg>
