<?xml version="1.0" encoding="utf-8"?>
<!-- Generator: Adobe Illustrator 24.0.0, SVG Export Plug-In . SVG Version: 6.00 Build 0)  -->
<svg version="1.1" id="Layer_1" xmlns="http://www.w3.org/2000/svg" xmlns:xlink="http://www.w3.org/1999/xlink" x="0px" y="0px"
	 viewBox="0 0 500 500" style="enable-background:new 0 0 500 500;" xml:space="preserve">
<style type="text/css">
	.st0{fill:#008000;}
	.st1{fill:#7FFF00;}
</style>
<g>
	<path class="st0" d="M118.24,288.3c0,0,25.59-18.82,39.38-7.06c13.79,11.76,10.97,42.82,20.38,45.18
		c9.41,2.35,35.76-12.24,45.18-51.29c9.41-39.06,37.65-34.35,46.12-40c8.47-5.65,20.71-25.88-3.29-29.65s-53.65,6.59-71.53-18.35
		C163.98,202.18,129.53,233.24,118.24,288.3z"/>
	<path class="st0" d="M201.69,428.39c0,0,26.66-18.33,15.37-30.51s-36.24-22.53,5.65-44.18c13.92-8.94,22.69,13.18,32.76,19.76
		s29.61,4,31.34,16.53s-22.59,12.18-29.23,18.77c-6.63,6.59-5.59,21.65-2.11,25.88C229.29,434.65,201.69,428.39,201.69,428.39z"/>
	<path class="st0" d="M347.41,216.3c0,0-9.66,43.2-36.28,58.35c-26.62,15.15-38.55,40.47,1.92,77.65
		c26.8,24.3,0.47,66.35,6.59,61.65C356.35,383.89,421.76,324.27,347.41,216.3z"/>
	<g>
		<path class="st1" d="M255.5,159.76c0,0-5.63-118.65,121.08-88.04c0,0,8.79,48.83-34.28,80.14S255.5,159.76,255.5,159.76z"/>
		<path d="M243.78,178.01l11.27-8.36c48.71,19.61,104.09-3.97,123.71-52.68c5.82-14.46,8-30.14,6.34-45.64
			c-0.23-2.16-1.59-4.04-3.58-4.92c-47.98-21.39-104.21,0.15-125.61,48.13c-6.34,14.21-9.09,29.75-8.02,45.27l-11.27,8.36
			L243.78,178.01z M310.86,129.07l31.75,5.02c3.32,0.53,6.44-1.74,6.97-5.06c0.53-3.32-1.74-6.44-5.06-6.97l-19.73-3.12l23.84-17.34
			c2.72-1.97,3.32-5.78,1.35-8.5c-1.97-2.72-5.78-3.32-8.5-1.35c0,0-0.01,0-0.01,0.01l-43.66,31.74l3.11-19.71
			c0.49-3.33-1.81-6.43-5.14-6.92c-3.29-0.49-6.35,1.75-6.9,5.02l-5.01,31.74l-24.03,17.47c1.2-45.79,39.29-81.94,85.08-80.74
			c9.72,0.25,19.31,2.22,28.35,5.79c2.92,45.7-31.75,85.12-77.45,88.04c-9.73,0.62-19.49-0.47-28.83-3.24L310.86,129.07z"/>
	</g>
	<g>
		<path class="st1" d="M246.88,164.56c0,0-87.2,21.26-82.73-77.13c0,0,34.95-13.55,64.38,13.89S246.88,164.56,246.88,164.56z"/>
		<path d="M257.57,166.82l-3.29-3.35c7.54-38.95-17.93-76.64-56.89-84.17c-11.57-2.24-23.51-1.6-34.77,1.87
			c-1.57,0.48-2.76,1.76-3.14,3.36c-8.96,38.67,15.12,77.28,53.78,86.24c11.45,2.65,23.38,2.46,34.73-0.57l3.29,3.35L257.57,166.82z
			 M216.15,127.92l-0.85-24.28c-0.09-2.54-2.22-4.53-4.76-4.44c-2.54,0.09-4.53,2.22-4.44,4.76l0.53,15.08l-16.29-15.19
			c-1.86-1.73-4.76-1.63-6.5,0.22c-1.73,1.86-1.63,4.76,0.22,6.5c0,0,0,0,0.01,0.01l29.83,27.81l-15.07,0.53
			c-2.54,0.11-4.51,2.27-4.39,4.81c0.11,2.51,2.21,4.46,4.72,4.39l24.26-0.85l16.42,15.31c-34.14,5.7-66.43-17.35-72.13-51.49
			c-1.21-7.24-1.14-14.64,0.22-21.86c33.48-8.75,67.71,11.3,76.45,44.77c1.86,7.12,2.45,14.52,1.75,21.85L216.15,127.92z"/>
	</g>
	<path d="M202.59,175.69c-1.04,0.41-2.18,0.72-3.21,1.17c-0.95,0.4-1.87,0.88-2.76,1.42c-0.67,0.06-1.32,0.24-1.93,0.51
		c-44.89,19.88-75.82,62.15-81.19,110.95c-0.11,0.48-0.16,0.96-0.16,1.45c-7.49,75.35,47.53,142.51,122.88,150
		c1.63,0.16,3.26,0.29,4.89,0.4c3.01,0.19,6,0.29,8.98,0.29c34.91,0.1,68.53-13.22,93.89-37.2c54.34-50.87,58.09-135.83,8.45-191.29
		c-0.53-1.09-1.36-2.01-2.4-2.64c-13.76-14.69-30.58-26.19-49.27-33.68c0,0-24.26-9.1-50.77-9.1S202.59,175.69,202.59,175.69z
		 M192.88,193.85c4.07,6.69,10.33,11.76,17.72,14.34c9.8,2.92,20.11,3.75,30.25,2.43c9.58-1.54,19.39-0.54,28.47,2.89
		c2.64,1.11,4.53,3.48,5.04,6.29c0.11,1.17,0.39,3.91-5.23,7.53c-3.22,1.86-6.85,2.9-10.57,3.02c-12.94,1.63-24.48,8.94-31.48,19.94
		c-5.84,9.44-10.34,19.64-13.36,30.32l-2.23,6.63c-3.2,13.29-11.26,24.91-22.59,32.57c-2.64,1.59-5.93,1.62-8.6,0.07
		c-2.73-1.9-2.88-4.45-2.61-10.73c0.09-2.02,0.17-4.06,0.08-6.04c-0.92-14.33-10.81-26.5-24.64-30.35
		c-2.53-0.65-5.12-0.97-7.73-0.95c-5.68,0.05-11.28,1.31-16.43,3.7C137.45,240.33,160.76,210.54,192.88,193.85z M214.74,423.86
		c2.3-2.53,4.23-5.37,5.72-8.45c5.06-9.31,3.43-20.83-4.01-28.37c-2.08-1.73-4.36-3.21-6.79-4.41c-2.28-1.23-4.43-2.37-4.95-3.57
		c-0.52-1.2,0.29-3.99,4.1-8.29c3.21-4.02,7.17-7.39,11.64-9.93c3.53-1.96,7.77-2.18,11.49-0.6c3.1,2.15,5.66,4.99,7.48,8.29
		c2.71,4.56,6.34,8.52,10.65,11.62c5,2.79,10.57,4.4,16.28,4.73c2.2,0.24,4.39,0.59,6.56,1.06c2.88,0.67,5.41,2.4,7.09,4.84
		c0.36,0.5,0.46,1.14,0.27,1.72c-1.27,1.76-3.26,2.87-5.43,3.03c-1.41,0.29-2.86,0.45-4.3,0.61c-3.21,0.26-6.38,0.89-9.44,1.89
		c-7.94,2.95-13.79,9.79-15.47,18.09c-0.77,4.27-0.38,8.67,1.14,12.73c-1.62-0.04-3.23,0.04-4.87-0.06
		C232.7,428.18,223.58,426.52,214.74,423.86z M335.2,395.32c-0.97,0.91-2.03,1.68-3.03,2.56c2.37-15.61-0.96-31.55-9.39-44.9
		c-3.87-5.67-8.22-11.01-13-15.94c-3.09-3.37-6.17-6.72-8.93-10.34c-6.26-7.01-9.12-16.42-7.81-25.72
		c2.4-8.68,10.9-14.51,19.91-20.68c3.03-2.09,6.07-4.16,8.88-6.35c13.77-10.9,23.77-25.85,28.57-42.74
		C387.63,281.87,381.1,352.36,335.2,395.32L335.2,395.32z M339.86,218.57c-2.53,17.84-11.79,34.02-25.88,45.24
		c-2.62,2.04-5.44,3.97-8.28,5.9c-11.41,5.98-20.28,15.87-25.01,27.85c-2.67,13.2,1.03,26.88,9.98,36.93c3,3.91,6.32,7.57,9.66,11.2
		c4.29,4.42,8.2,9.18,11.7,14.25c9.66,15.28,10.82,34.44,3.07,50.76c-16.32,10.02-34.77,16.07-53.85,17.68
		c-4.32-4.37-4.27-11.41,0.1-15.73c1.16-1.15,2.56-2.02,4.1-2.57c2.14-0.64,4.34-1.05,6.56-1.21c1.78-0.21,3.58-0.42,5.34-0.77
		c6.64-0.83,12.34-5.11,14.99-11.26c1.42-4.02,1.04-8.45-1.05-12.16c-3.39-5.66-8.93-9.7-15.36-11.21
		c-2.63-0.58-5.28-1.02-7.96-1.32c-3.82-0.17-7.56-1.13-10.99-2.83c-2.81-2.21-5.18-4.94-6.97-8.03c-2.92-5.07-7.07-9.34-12.06-12.4
		c-7.34-3.54-15.91-3.38-23.12,0.42c-6.02,3.25-11.33,7.66-15.64,12.97c-6.32,5.34-8.78,13.97-6.24,21.85
		c2.29,4.42,6.06,7.88,10.66,9.78c1.54,0.74,2.99,1.64,4.34,2.69c3.03,3.7,3.45,8.9,1.06,13.04c-1.77,3.76-4.53,6.97-7.99,9.27
		c-49.66-21.08-79.99-71.85-75.01-125.57c5.98-6.72,15.04-9.82,23.89-8.18c8.41,2.43,14.42,9.84,15.07,18.57
		c0.08,1.59,0,3.22-0.08,4.86c-1.62,8.22,1.51,16.66,8.1,21.83c6.59,4.31,15.03,4.6,21.89,0.73c14.31-9.05,24.59-23.27,28.71-39.7
		l2.29-6.79c2.66-9.55,6.63-18.68,11.79-27.14c4.81-7.8,12.84-13.07,21.91-14.39c5.84-0.26,11.51-1.99,16.5-5.03
		c7.27-3.71,11.62-11.41,11.04-19.55c-0.89-7.24-5.47-13.49-12.1-16.53c-11.29-4.55-23.59-5.98-35.63-4.15
		c-8.17,1.08-16.48,0.49-24.42-1.73c-4.14-1.43-7.75-4.07-10.38-7.57c14.41-5.87,29.85-8.78,45.41-8.55
		C283.97,180.02,316.45,193.96,339.86,218.57L339.86,218.57z"/>
</g>
</svg>
