<?xml version="1.0" encoding="utf-8"?>
<!-- Generator: Adobe Illustrator 24.0.0, SVG Export Plug-In . SVG Version: 6.00 Build 0)  -->
<svg version="1.1" id="Layer_1" xmlns="http://www.w3.org/2000/svg" xmlns:xlink="http://www.w3.org/1999/xlink" x="0px" y="0px"
	 viewBox="0 0 500 500" style="enable-background:new 0 0 500 500;" xml:space="preserve">
<style type="text/css">
	.st0{fill:#008000;}
	.st1{fill:#B3B3B3;}
	.st2{fill:#7FFF00;}
</style>
<g>
	<path class="st0" d="M183.46,211.16c0,0,78.12-118.9,179.29,0c0,0-25.88,53.49-89.65,53.49S183.46,211.16,183.46,211.16z"/>
	<rect x="220.64" y="403.06" class="st1" width="142.12" height="30.06"/>
	<path d="M273.6,60c-81.62,0.09-148.06,65.67-149.21,147.28l-46.27,93.88c-1.96,3.52-0.7,7.95,2.82,9.91
		c1.09,0.61,2.31,0.92,3.56,0.92h34.64v54.96c0,4.03,3.27,7.3,7.3,7.3h87.11v58.45c0,4.03,3.27,7.3,7.3,7.3h144.24
		c4.03,0,7.3-3.27,7.3-7.3V322.78c32.02-28.27,50.37-68.91,50.41-111.62c-0.04-0.32-0.1-0.63-0.19-0.94
		c0.09-0.33,0.16-0.67,0.2-1.01C422.71,126.84,355.96,60.09,273.6,60z M360.4,314.06l-0.14,0.18c-0.49,0.47-0.91,1-1.26,1.59
		c-0.16,0.21-0.3,0.42-0.44,0.64c-0.29,0.89-0.53,1.81-0.7,2.73c-0.01,0.14-0.08,0.27-0.08,0.42v105.79H228.14v-58.46
		c0-4.02-3.26-7.29-7.29-7.29c0,0-0.01,0-0.01,0h-87.11V304.7c0-4.02-3.26-7.29-7.29-7.29c0,0-0.01,0-0.01,0H96.9l37.99-78.99h40.66
		c33.37,53.31,103.63,69.47,156.94,36.1c15.83-9.91,28.98-23.56,38.29-39.75c1.3-2.26,1.3-5.03,0-7.29
		c-31.4-54.52-101.06-73.25-155.57-41.85c-16.14,9.3-29.76,22.42-39.66,38.2h-36.3c2.92-74.24,65.47-132.06,139.71-129.14
		c72.22,2.84,129.29,62.23,129.25,134.5c0.04,0.31,0.1,0.63,0.19,0.93c-0.1,0.33-0.16,0.67-0.2,1.02
		C408.19,250.82,390.71,288.47,360.4,314.06z M258.18,218.43l27.23,27.23c2.85,2.85,7.47,2.85,10.32,0.01s2.85-7.47,0.01-10.32
		l-16.91-16.91h35.31c4.02,0,7.29-3.26,7.29-7.28c0-4.02-3.26-7.29-7.28-7.29c0,0-0.01,0-0.01,0h-64.65l16.9-16.9
		c2.82-2.88,2.77-7.5-0.1-10.32c-2.84-2.78-7.39-2.78-10.22,0.01l-27.21,27.21h-35.58c33.42-43.51,95.78-51.69,139.29-18.28
		c9.23,7.09,17.15,15.75,23.38,25.58c-29.35,46.33-90.71,60.09-137.04,30.73c-9.86-6.25-18.54-14.18-25.65-23.45L258.18,218.43z"/>
	<path d="M217.6,395.77v7.29c0,4.03,3.12,7.3,6.96,7.3H362.2c3.85,0,6.96-3.27,6.96-7.3v-7.29H217.6z"/>
	<g>
		<path class="st2" d="M156.74,200.82c0,0,11-93.05,105.61-52.81c0,0,0.51,39.13-37.05,57.91S156.74,200.82,156.74,200.82z"/>
		<path d="M139.4,216.32l15.71-7.85c35.36,21.57,81.51,10.4,103.08-24.96c6.41-10.5,10.13-22.41,10.85-34.69
			c0.1-1.71-0.72-3.35-2.15-4.29c-34.56-22.86-81.1-13.38-103.96,21.17c-6.77,10.23-10.93,21.97-12.11,34.18l-15.71,7.85
			L139.4,216.32z M203.78,184.13l24.06,8.02c2.52,0.84,5.24-0.52,6.08-3.04s-0.52-5.24-3.04-6.08l-14.94-4.98l20.8-10.4
			c2.37-1.18,3.34-4.07,2.15-6.44c-1.18-2.37-4.07-3.34-6.44-2.15c0,0-0.01,0-0.01,0l-38.08,19.04l4.98-14.93
			c0.81-2.53-0.57-5.23-3.1-6.05c-2.49-0.8-5.17,0.54-6.02,3.02l-8.01,24.04l-20.96,10.48c6.87-35.47,41.19-58.66,76.66-51.79
			c7.53,1.46,14.74,4.23,21.31,8.18c-3.65,35.94-35.73,62.11-71.67,58.46c-7.65-0.78-15.1-2.89-22.01-6.26L203.78,184.13z"/>
	</g>
</g>
</svg>
